<?xml version="1.0" encoding="utf-8"?>
<!-- Generator: Adobe Illustrator 25.4.1, SVG Export Plug-In . SVG Version: 6.00 Build 0)  -->
<svg version="1.0" id="katman_1" xmlns="http://www.w3.org/2000/svg" xmlns:xlink="http://www.w3.org/1999/xlink" x="0px" y="0px"
	 viewBox="0 0 800 600" style="enable-background:new 0 0 800 600;" xml:space="preserve">
<style type="text/css">
	.st0{fill:#1D1D1B;}
	.st1{opacity:0.7;fill:#1D1D1B;enable-background:new    ;}
	.st2{opacity:0.8;fill:#1D1D1B;enable-background:new    ;}
	.st3{opacity:0.5;fill:#1D1D1B;enable-background:new    ;}
</style>
<path class="st0" d="M352.5,301.3c5.7,3.3,8.6,8.3,8.6,15c0,5.5-2,10.1-5.9,13.7c-3.9,3.6-8.8,5.3-14.5,5.3h-27.8v-65.5h25.9
	c5.6,0,10.4,1.8,14.2,5.2c3.8,3.5,5.7,7.9,5.7,13.2C358.8,293.7,356.7,298,352.5,301.3z M338.8,281.9h-12.9v14.4h12.9
	c2,0,3.7-0.7,5-2.1c1.3-1.4,2-3.1,2-5.2c0-2.1-0.6-3.8-2-5.2C342.5,282.6,340.8,281.9,338.8,281.9z M340.7,323.3
	c2.2,0,4-0.7,5.4-2.2c1.4-1.5,2.2-3.4,2.2-5.6c0-2.2-0.7-4-2.2-5.5c-1.4-1.5-3.2-2.2-5.4-2.2h-14.9v15.5L340.7,323.3L340.7,323.3z"
	/>
<path class="st0" d="M375,282.9c-2,0-3.7-0.7-5.2-2.2c-1.5-1.5-2.2-3.2-2.2-5.2c0-2,0.7-3.7,2.2-5.3c1.5-1.5,3.2-2.2,5.2-2.2
	c2.1,0,3.8,0.7,5.3,2.2c1.5,1.5,2.2,3.2,2.2,5.3c0,2-0.7,3.7-2.2,5.2C378.9,282.2,377.1,282.9,375,282.9z M369,335.3v-46.8h12.1
	v46.8H369z"/>
<path class="st0" d="M419,300.1h-10.6v19.5c0,1.6,0.4,2.8,1.2,3.6c0.8,0.7,2,1.2,3.6,1.3c1.5,0.1,3.5,0.1,5.8-0.1v11
	c-8.3,1-14.1,0.2-17.6-2.3c-3.4-2.5-5.1-7-5.1-13.4v-19.5h-8.1v-11.6h8.1v-9.5l12.1-3.7v13.1H419V300.1z"/>
<path class="st0" d="M461.6,288.5h12.1v65.6h-12.1v-24.3c-3.6,4.6-8.6,6.9-15.2,6.9c-6.3,0-11.7-2.4-16.2-7.2
	c-4.5-4.8-6.7-10.6-6.7-17.6s2.2-12.8,6.7-17.6c4.5-4.8,9.8-7.2,16.2-7.2c6.5,0,11.6,2.3,15.2,6.9V288.5z M439.3,321.4
	c2.4,2.4,5.6,3.7,9.3,3.7c3.7,0,6.9-1.2,9.3-3.7c2.4-2.4,3.7-5.6,3.7-9.5c0-3.9-1.2-7-3.7-9.5c-2.4-2.4-5.5-3.7-9.3-3.7
	c-3.7,0-6.9,1.2-9.3,3.7c-2.4,2.4-3.7,5.6-3.7,9.5C435.6,315.8,436.8,319,439.3,321.4z"/>
<path class="st0" d="M515.6,288.5h12.1v46.8h-12.1v-5.3c-2.9,4.4-7.6,6.5-13.9,6.5c-5.1,0-9.4-1.7-12.7-5.2c-3.4-3.5-5-8.2-5-14.3
	v-28.8H496v27.2c0,3.1,0.8,5.5,2.6,7.2c1.7,1.6,3.9,2.5,6.8,2.5c3.1,0,5.6-1,7.5-2.9c1.9-1.9,2.8-4.8,2.8-8.7L515.6,288.5
	L515.6,288.5z"/>
<path class="st0" d="M549,316.9c1.6,5.9,6,8.8,13.2,8.8c4.6,0,8.1-1.5,10.5-4.7l9.7,5.6c-4.6,6.7-11.4,10-20.4,10
	c-7.8,0-13.9-2.3-18.6-7c-4.7-4.7-7-10.6-7-17.7c0-7.1,2.3-12.9,6.9-17.7c4.6-4.7,10.5-7.1,17.8-7.1c6.9,0,12.6,2.4,17,7.1
	c4.5,4.7,6.7,10.6,6.7,17.6c0,1.5-0.2,3.2-0.5,4.9H549z M548.8,307.5h23.9c-0.7-3.2-2.1-5.5-4.3-7.1c-2.1-1.5-4.6-2.3-7.3-2.3
	c-3.2,0-6,0.9-8,2.5C550.9,302.2,549.5,304.5,548.8,307.5z"/>
<path class="st0" d="M605.3,296.6c1.1-3,3-5.3,5.6-6.8c2.6-1.5,5.5-2.2,8.7-2.2v13.5c-3.7-0.4-7,0.3-9.9,2.2
	c-2.9,1.9-4.4,5.2-4.4,9.6v22.4h-12.1v-46.8h12.1V296.6z"/>
<path class="st0" d="M658.1,288.5H671l-17.1,46.9c-2.4,6.7-5.6,11.5-9.7,14.6c-4,3-9,4.4-15,4.1v-11.2c3.2,0.1,5.8-0.6,7.7-2.1
	c1.9-1.4,3.4-3.7,4.5-6.9l-19.2-45.3h13.2l12.2,31.5L658.1,288.5z"/>
<path class="st1" d="M207.7,373.6c-0.6,0.1-1.2,0.1-1.9,0.1h-34.3c-2.4,0-4.8-0.2-7.2-0.6l4.5-14.6c1.9-6.3,0-13.1-4.9-17.4l-6.8-6
	c-3.6-3.2-5.6-7.7-5.6-12.5v-28.7c0-1.8-0.3-3.7-0.9-5.4l-20.8-61.6l36.4,51.3c1.7,2.4,2.8,5.2,3.1,8.2l2.3,21.5
	c0.6,5.9,4.2,11.1,9.5,13.7l12.8,6.5c5.1,2.6,8.7,7.6,9.4,13.3L207.7,373.6z"/>
<path class="st0" d="M247.6,268.5c-5.8-7.8-14.4-13.1-24.1-14.5l-20.6-3.1c-2.9-0.4-5.8-1.3-8.4-2.5c-2.6-1.2-5.2-2.8-7.4-4.7
	c-4.6-3.8-10-6.5-15.8-7.8l-41.5-9.1h-0.1h75.7c21.6,0,39.7,16.5,41.9,37.5C247.5,265.6,247.6,267,247.6,268.5z"/>
<path class="st2" d="M247.6,268.5c0,0.4,0,0.7,0,1.1c0,0.3,0,0.5-0.1,0.8c0,0.2,0,0.3,0,0.4c0,0.3-0.1,0.5-0.1,0.7
	c0,0.1,0,0.2,0,0.3c-0.1,0.3-0.1,0.6-0.1,0.9c0,0.1,0,0.1,0,0.1c-0.1,0.3-0.1,0.5-0.1,0.8c0,0.1,0,0.2-0.1,0.3
	c-0.1,0.3-0.1,0.6-0.2,1c-0.1,0.3-0.1,0.5-0.1,0.7c-0.1,0.4-0.2,0.9-0.3,1.3c-0.1,0.3-0.2,0.6-0.2,0.9c0,0.1,0,0.1,0,0.1
	c-0.1,0.3-0.2,0.6-0.3,1c-0.1,0.3-0.2,0.5-0.2,0.8c-0.2,0.6-0.3,1.2-0.5,1.7c-0.1,0.2-0.2,0.4-0.2,0.6c-0.1,0.3-0.2,0.6-0.3,1
	c-0.3,0.9-0.7,1.8-1.1,2.6c-0.2,0.3-0.3,0.6-0.4,0.9c-0.2,0.3-0.3,0.6-0.4,0.8c-0.1,0.2-0.2,0.3-0.3,0.5c-0.1,0.2-0.2,0.4-0.3,0.6
	c-1,1.7-2,3.4-3.2,5c-0.2,0.2-0.3,0.4-0.5,0.6c-0.5,0.7-1.1,1.3-1.6,2c-0.4,0.4-0.7,0.8-1.1,1.2c-0.2,0.3-0.5,0.5-0.7,0.7
	c-0.4,0.4-0.7,0.7-1.2,1.1c-0.4,0.4-0.8,0.7-1.2,1.1l-103.1-73.5h0.1l41.5,9.1c5.8,1.3,11.2,4,15.8,7.8c2.3,1.9,4.8,3.5,7.4,4.7
	c2.6,1.2,5.5,2.1,8.4,2.5l20.6,3.1C233.1,255.4,241.8,260.6,247.6,268.5z"/>
<path class="st2" d="M246.9,339.6c-3.5,18.8-19.6,33.1-39.2,34l-4.3-32.3c-0.8-5.7-4.3-10.7-9.4-13.3l-12.8-6.5
	c-5.3-2.6-8.8-7.8-9.5-13.7l-2.3-21.5c-0.3-3-1.4-5.8-3.1-8.2l-36.5-51.3l60.9,58c1.3,1.3,2.4,2.8,3.2,4.5c0.1,0.2,0.2,0.3,0.2,0.5
	c0.6,1.5,1.1,3.1,1.2,4.8c0.5,6,4.6,11.2,10.3,13.1l7,2.4l16.8,5.7c3.7,1.3,6.7,3.8,8.5,7.3L246.9,339.6z"/>
<path class="st3" d="M168.8,358.3l-4.5,14.6c-19.6-3.4-34.5-20.6-34.5-41.1V226.7l20.8,61.6c0.6,1.7,0.9,3.5,0.9,5.4v28.7
	c0,4.8,2.1,9.3,5.6,12.5l6.8,6C168.8,345.3,170.7,352.1,168.8,358.3z"/>
<path class="st0" d="M247.6,331.9c0,2.6-0.3,5.2-0.7,7.7l-8.8-16.5c-1.9-3.4-4.9-6-8.5-7.3l-16.8-5.7l-7-2.4
	c-5.7-2-9.8-7.1-10.3-13.1c-0.2-1.6-0.6-3.3-1.2-4.8c-0.1-0.2-0.2-0.3-0.2-0.5c-0.8-1.6-1.9-3.2-3.2-4.5l-60.9-58.1L233,300.1
	C241.9,307.8,247.6,319.1,247.6,331.9z"/>
</svg>
