<svg xmlns="http://www.w3.org/2000/svg" viewBox="0 0 720 360" role="img" aria-label="Cross-chain 24h DEX volume share">
  <rect width="720" height="360" fill="#ffffff"/>
  <text x="32" y="26" fill="#0f172a" font-size="14" font-weight="600" font-family="ui-sans-serif, system-ui, sans-serif">
    24h DEX volume share across chains
  </text>
  <path d="M180.00,50.00 A130,130 0 1 1 56.10,219.37 L105.66,203.62 A78,78 0 1 0 180.00,102.00 Z" fill="#2563eb"/><path d="M56.10,219.37 A130,130 0 0 1 73.19,105.89 L115.92,135.53 A78,78 0 0 0 105.66,203.62 Z" fill="#16a34a"/><path d="M73.19,105.89 A130,130 0 0 1 122.62,63.35 L145.57,110.01 A78,78 0 0 0 115.92,135.53 Z" fill="#f59e0b"/><path d="M122.62,63.35 A130,130 0 0 1 154.26,52.57 L164.56,103.54 A78,78 0 0 0 145.57,110.01 Z" fill="#7c3aed"/><path d="M154.26,52.57 A130,130 0 0 1 166.66,50.69 L172.00,102.41 A78,78 0 0 0 164.56,103.54 Z" fill="#0d9488"/><path d="M166.66,50.69 A130,130 0 0 1 177.03,50.03 L178.22,102.02 A78,78 0 0 0 172.00,102.41 Z" fill="#db2777"/><path d="M177.03,50.03 A130,130 0 0 1 179.29,50.00 L179.57,102.00 A78,78 0 0 0 178.22,102.02 Z" fill="#0891b2"/><path d="M179.29,50.00 A130,130 0 0 1 180.00,50.00 L180.00,102.00 A78,78 0 0 0 179.57,102.00 Z" fill="#65a30d"/>
  <text x="180" y="174" text-anchor="middle" fill="#64748b" font-size="12" font-family="ui-sans-serif, system-ui, sans-serif">total</text>
  <text x="180" y="198" text-anchor="middle" fill="#0f172a" font-size="20" font-weight="700" font-family="ui-sans-serif, system-ui, sans-serif">$37.04B</text>
  <rect x="380" y="60" width="14" height="14" rx="3" fill="#2563eb"/><text x="402" y="71" fill="#0f172a" font-size="13" font-family="ui-sans-serif, system-ui, sans-serif">Solana</text><text x="565" y="71" fill="#0f172a" font-size="13" font-weight="600" text-anchor="end" font-family="ui-sans-serif, system-ui, sans-serif">$25.97B</text><text x="690" y="71" fill="#64748b" font-size="12" text-anchor="end" font-family="ui-sans-serif, system-ui, sans-serif">70.1%</text><rect x="380" y="92" width="14" height="14" rx="3" fill="#16a34a"/><text x="402" y="103" fill="#0f172a" font-size="13" font-family="ui-sans-serif, system-ui, sans-serif">BNB Smart Chain</text><text x="565" y="103" fill="#0f172a" font-size="13" font-weight="600" text-anchor="end" font-family="ui-sans-serif, system-ui, sans-serif">$5.39B</text><text x="690" y="103" fill="#64748b" font-size="12" text-anchor="end" font-family="ui-sans-serif, system-ui, sans-serif">14.6%</text><rect x="380" y="124" width="14" height="14" rx="3" fill="#f59e0b"/><text x="402" y="135" fill="#0f172a" font-size="13" font-family="ui-sans-serif, system-ui, sans-serif">Ethereum</text><text x="565" y="135" fill="#0f172a" font-size="13" font-weight="600" text-anchor="end" font-family="ui-sans-serif, system-ui, sans-serif">$2.99B</text><text x="690" y="135" fill="#64748b" font-size="12" text-anchor="end" font-family="ui-sans-serif, system-ui, sans-serif">8.1%</text><rect x="380" y="156" width="14" height="14" rx="3" fill="#7c3aed"/><text x="402" y="167" fill="#0f172a" font-size="13" font-family="ui-sans-serif, system-ui, sans-serif">Base</text><text x="565" y="167" fill="#0f172a" font-size="13" font-weight="600" text-anchor="end" font-family="ui-sans-serif, system-ui, sans-serif">$1.52B</text><text x="690" y="167" fill="#64748b" font-size="12" text-anchor="end" font-family="ui-sans-serif, system-ui, sans-serif">4.1%</text><rect x="380" y="188" width="14" height="14" rx="3" fill="#0d9488"/><text x="402" y="199" fill="#0f172a" font-size="13" font-family="ui-sans-serif, system-ui, sans-serif">Polygon</text><text x="565" y="199" fill="#0f172a" font-size="13" font-weight="600" text-anchor="end" font-family="ui-sans-serif, system-ui, sans-serif">$568.8M</text><text x="690" y="199" fill="#64748b" font-size="12" text-anchor="end" font-family="ui-sans-serif, system-ui, sans-serif">1.5%</text><rect x="380" y="220" width="14" height="14" rx="3" fill="#db2777"/><text x="402" y="231" fill="#0f172a" font-size="13" font-family="ui-sans-serif, system-ui, sans-serif">Arbitrum</text><text x="565" y="231" fill="#0f172a" font-size="13" font-weight="600" text-anchor="end" font-family="ui-sans-serif, system-ui, sans-serif">$471.5M</text><text x="690" y="231" fill="#64748b" font-size="12" text-anchor="end" font-family="ui-sans-serif, system-ui, sans-serif">1.3%</text><rect x="380" y="252" width="14" height="14" rx="3" fill="#0891b2"/><text x="402" y="263" fill="#0f172a" font-size="13" font-family="ui-sans-serif, system-ui, sans-serif">Tron</text><text x="565" y="263" fill="#0f172a" font-size="13" font-weight="600" text-anchor="end" font-family="ui-sans-serif, system-ui, sans-serif">$102.2M</text><text x="690" y="263" fill="#64748b" font-size="12" text-anchor="end" font-family="ui-sans-serif, system-ui, sans-serif">0.3%</text><rect x="380" y="284" width="14" height="14" rx="3" fill="#65a30d"/><text x="402" y="295" fill="#0f172a" font-size="13" font-family="ui-sans-serif, system-ui, sans-serif">Optimism</text><text x="565" y="295" fill="#0f172a" font-size="13" font-weight="600" text-anchor="end" font-family="ui-sans-serif, system-ui, sans-serif">$32.3M</text><text x="690" y="295" fill="#64748b" font-size="12" text-anchor="end" font-family="ui-sans-serif, system-ui, sans-serif">0.1%</text>
</svg>
