<svg xmlns="http://www.w3.org/2000/svg" viewBox="0 0 720 320" role="img" aria-label="Pump.fun new tokens per hour, last 36h">
  <rect width="720" height="320" fill="#ffffff"/>
  <defs>
    <linearGradient id="pfGrad" x1="0" x2="0" y1="0" y2="1">
      <stop offset="0%" stop-color="#2563eb" stop-opacity="0.45"/>
      <stop offset="100%" stop-color="#2563eb" stop-opacity="0.02"/>
    </linearGradient>
  </defs>
  <text x="56" y="22" fill="#0f172a" font-size="14" font-weight="600" font-family="ui-sans-serif, system-ui, sans-serif">
    Pump.fun new tokens per hour — last 36 hours
  </text>
  <text x="56" y="40" fill="#64748b" font-size="12" font-family="ui-sans-serif, system-ui, sans-serif">
    Total: 68,310   |   Avg/hr: 1898   |   Peak: 2,698
  </text>
  <line x1="56" y1="264.00" x2="704" y2="264.00" stroke="#e2e8f0" stroke-width="1"/><text x="48" y="268.00" text-anchor="end" fill="#64748b" font-size="11" font-family="ui-sans-serif, system-ui, sans-serif">0</text><line x1="56" y1="212.00" x2="704" y2="212.00" stroke="#e2e8f0" stroke-width="1"/><text x="48" y="216.00" text-anchor="end" fill="#64748b" font-size="11" font-family="ui-sans-serif, system-ui, sans-serif">674</text><line x1="56" y1="160.00" x2="704" y2="160.00" stroke="#e2e8f0" stroke-width="1"/><text x="48" y="164.00" text-anchor="end" fill="#64748b" font-size="11" font-family="ui-sans-serif, system-ui, sans-serif">1,349</text><line x1="56" y1="108.00" x2="704" y2="108.00" stroke="#e2e8f0" stroke-width="1"/><text x="48" y="112.00" text-anchor="end" fill="#64748b" font-size="11" font-family="ui-sans-serif, system-ui, sans-serif">2,023</text><line x1="56" y1="56.00" x2="704" y2="56.00" stroke="#e2e8f0" stroke-width="1"/><text x="48" y="60.00" text-anchor="end" fill="#64748b" font-size="11" font-family="ui-sans-serif, system-ui, sans-serif">2,698</text>
  <path d="M 56.00,264 L 56.00,95.93 L 74.51,119.99 L 93.03,120.91 L 111.54,134.94 L 130.06,139.03 L 148.57,146.82 L 167.09,134.10 L 185.60,118.06 L 204.11,108.73 L 222.63,114.75 L 241.14,101.10 L 259.66,120.91 L 278.17,96.40 L 296.69,79.13 L 315.20,86.99 L 333.71,58.93 L 352.23,95.78 L 370.74,76.58 L 389.26,76.66 L 407.77,79.36 L 426.29,56.00 L 444.80,81.75 L 463.31,88.30 L 481.83,120.53 L 500.34,130.16 L 518.86,147.97 L 537.37,158.77 L 555.89,159.69 L 574.40,155.76 L 592.91,147.43 L 611.43,140.03 L 629.94,150.90 L 648.46,152.29 L 666.97,148.13 L 685.49,147.28 L 704.00,147.59 L 704.00,264 Z" fill="url(#pfGrad)"/>
  <path d="M 56.00,95.93 L 74.51,119.99 L 93.03,120.91 L 111.54,134.94 L 130.06,139.03 L 148.57,146.82 L 167.09,134.10 L 185.60,118.06 L 204.11,108.73 L 222.63,114.75 L 241.14,101.10 L 259.66,120.91 L 278.17,96.40 L 296.69,79.13 L 315.20,86.99 L 333.71,58.93 L 352.23,95.78 L 370.74,76.58 L 389.26,76.66 L 407.77,79.36 L 426.29,56.00 L 444.80,81.75 L 463.31,88.30 L 481.83,120.53 L 500.34,130.16 L 518.86,147.97 L 537.37,158.77 L 555.89,159.69 L 574.40,155.76 L 592.91,147.43 L 611.43,140.03 L 629.94,150.90 L 648.46,152.29 L 666.97,148.13 L 685.49,147.28 L 704.00,147.59" fill="none" stroke="#2563eb" stroke-width="2" stroke-linejoin="round"/>
  <text x="56.00" y="278.00" text-anchor="middle" fill="#64748b" font-size="11" font-family="ui-sans-serif, system-ui, sans-serif">00:00</text><text x="167.09" y="278.00" text-anchor="middle" fill="#64748b" font-size="11" font-family="ui-sans-serif, system-ui, sans-serif">06:00</text><text x="278.17" y="278.00" text-anchor="middle" fill="#64748b" font-size="11" font-family="ui-sans-serif, system-ui, sans-serif">12:00</text><text x="389.26" y="278.00" text-anchor="middle" fill="#64748b" font-size="11" font-family="ui-sans-serif, system-ui, sans-serif">18:00</text><text x="500.34" y="278.00" text-anchor="middle" fill="#64748b" font-size="11" font-family="ui-sans-serif, system-ui, sans-serif">00:00</text><text x="611.43" y="278.00" text-anchor="middle" fill="#64748b" font-size="11" font-family="ui-sans-serif, system-ui, sans-serif">06:00</text>
  <text x="380" y="308" text-anchor="middle" fill="#64748b" font-size="11" font-family="ui-sans-serif, system-ui, sans-serif">UTC hour</text>
</svg>
