<svg xmlns="http://www.w3.org/2000/svg" viewBox="0 0 720 360" role="img" aria-label="Whale wallet 24h buy vs sell volume per token">
  <rect width="720" height="360" fill="#ffffff"/>
  <text x="84" y="22" fill="#0f172a" font-size="14" font-weight="600" font-family="ui-sans-serif, system-ui, sans-serif">
    Whale wallet (MfDuWeqS…) — 24h buy vs sell volume per token
  </text>
  <rect x="84" y="38" width="14" height="14" rx="3" fill="#16a34a"/><text x="104" y="49" fill="#0f172a" font-size="12" font-family="ui-sans-serif, system-ui, sans-serif">Bought (USD)</text><rect x="214" y="38" width="14" height="14" rx="3" fill="#dc2626"/><text x="234" y="49" fill="#0f172a" font-size="12" font-family="ui-sans-serif, system-ui, sans-serif">Sold (USD)</text>
  <line x1="84" y1="304.00" x2="696" y2="304.00" stroke="#e2e8f0" stroke-width="1"/><text x="76" y="308.00" text-anchor="end" fill="#64748b" font-size="11" font-family="ui-sans-serif, system-ui, sans-serif">$0</text><line x1="84" y1="242.00" x2="696" y2="242.00" stroke="#e2e8f0" stroke-width="1"/><text x="76" y="246.00" text-anchor="end" fill="#64748b" font-size="11" font-family="ui-sans-serif, system-ui, sans-serif">$11.1M</text><line x1="84" y1="180.00" x2="696" y2="180.00" stroke="#e2e8f0" stroke-width="1"/><text x="76" y="184.00" text-anchor="end" fill="#64748b" font-size="11" font-family="ui-sans-serif, system-ui, sans-serif">$22.2M</text><line x1="84" y1="118.00" x2="696" y2="118.00" stroke="#e2e8f0" stroke-width="1"/><text x="76" y="122.00" text-anchor="end" fill="#64748b" font-size="11" font-family="ui-sans-serif, system-ui, sans-serif">$33.4M</text><line x1="84" y1="56.00" x2="696" y2="56.00" stroke="#e2e8f0" stroke-width="1"/><text x="76" y="60.00" text-anchor="end" fill="#64748b" font-size="11" font-family="ui-sans-serif, system-ui, sans-serif">$44.5M</text>
  <rect x="92.7" y="85.3" width="27.5" height="218.7" rx="2" fill="#16a34a"/><rect x="124.2" y="56.0" width="27.5" height="248.0" rx="2" fill="#dc2626"/><text x="122.2" y="318.0" text-anchor="middle" fill="#0f172a" font-size="12" font-weight="600" font-family="ui-sans-serif, system-ui, sans-serif">WSOL</text><rect x="169.2" y="264.9" width="27.5" height="39.1" rx="2" fill="#16a34a"/><rect x="200.8" y="268.1" width="27.5" height="35.9" rx="2" fill="#dc2626"/><text x="198.8" y="318.0" text-anchor="middle" fill="#0f172a" font-size="12" font-weight="600" font-family="ui-sans-serif, system-ui, sans-serif">cbBTC</text><rect x="245.7" y="282.4" width="27.5" height="21.6" rx="2" fill="#16a34a"/><rect x="277.2" y="275.1" width="27.5" height="28.9" rx="2" fill="#dc2626"/><text x="275.2" y="318.0" text-anchor="middle" fill="#0f172a" font-size="12" font-weight="600" font-family="ui-sans-serif, system-ui, sans-serif">WETH</text><rect x="322.2" y="280.5" width="27.5" height="23.5" rx="2" fill="#16a34a"/><rect x="353.8" y="280.5" width="27.5" height="23.5" rx="2" fill="#dc2626"/><text x="351.8" y="318.0" text-anchor="middle" fill="#0f172a" font-size="12" font-weight="600" font-family="ui-sans-serif, system-ui, sans-serif">MET</text><rect x="398.7" y="285.5" width="27.5" height="18.5" rx="2" fill="#16a34a"/><rect x="430.2" y="297.3" width="27.5" height="6.7" rx="2" fill="#dc2626"/><text x="428.2" y="318.0" text-anchor="middle" fill="#0f172a" font-size="12" font-weight="600" font-family="ui-sans-serif, system-ui, sans-serif">TRUMP</text><rect x="475.2" y="298.4" width="27.5" height="5.6" rx="2" fill="#16a34a"/><rect x="506.8" y="298.1" width="27.5" height="5.9" rx="2" fill="#dc2626"/><text x="504.8" y="318.0" text-anchor="middle" fill="#0f172a" font-size="12" font-weight="600" font-family="ui-sans-serif, system-ui, sans-serif">EURC</text><rect x="551.7" y="297.2" width="27.5" height="6.8" rx="2" fill="#16a34a"/><rect x="583.2" y="300.0" width="27.5" height="4.0" rx="2" fill="#dc2626"/><text x="581.2" y="318.0" text-anchor="middle" fill="#0f172a" font-size="12" font-weight="600" font-family="ui-sans-serif, system-ui, sans-serif">WBTC</text><rect x="628.2" y="299.2" width="27.5" height="4.8" rx="2" fill="#16a34a"/><rect x="659.8" y="298.3" width="27.5" height="5.7" rx="2" fill="#dc2626"/><text x="657.8" y="318.0" text-anchor="middle" fill="#0f172a" font-size="12" font-weight="600" font-family="ui-sans-serif, system-ui, sans-serif">JLP</text>
</svg>
