<svg xmlns="http://www.w3.org/2000/svg" viewBox="0 0 720 380" role="img" aria-label="WSOL 24h hourly candlesticks">
  <rect width="720" height="380" fill="#ffffff"/>
  <text x="56" y="22" fill="#0f172a" font-size="14" font-weight="600" font-family="ui-sans-serif, system-ui, sans-serif">
    WSOL / USD — 1h candles, last 24h
  </text>
  <text x="704" y="22" text-anchor="end" fill="#dc2626" font-size="13" font-weight="600" font-family="ui-sans-serif, system-ui, sans-serif">
    88.59 → 86.04 (-2.88%)
  </text>
  <line x1="56" y1="240.00" x2="704" y2="240.00" stroke="#e2e8f0" stroke-width="1"/><text x="48" y="244.00" text-anchor="end" fill="#64748b" font-size="11" font-family="ui-sans-serif, system-ui, sans-serif">$84.89</text><line x1="56" y1="189.00" x2="704" y2="189.00" stroke="#e2e8f0" stroke-width="1"/><text x="48" y="193.00" text-anchor="end" fill="#64748b" font-size="11" font-family="ui-sans-serif, system-ui, sans-serif">$86.09</text><line x1="56" y1="138.00" x2="704" y2="138.00" stroke="#e2e8f0" stroke-width="1"/><text x="48" y="142.00" text-anchor="end" fill="#64748b" font-size="11" font-family="ui-sans-serif, system-ui, sans-serif">$87.28</text><line x1="56" y1="87.00" x2="704" y2="87.00" stroke="#e2e8f0" stroke-width="1"/><text x="48" y="91.00" text-anchor="end" fill="#64748b" font-size="11" font-family="ui-sans-serif, system-ui, sans-serif">$88.47</text><line x1="56" y1="36.00" x2="704" y2="36.00" stroke="#e2e8f0" stroke-width="1"/><text x="48" y="40.00" text-anchor="end" fill="#64748b" font-size="11" font-family="ui-sans-serif, system-ui, sans-serif">$89.66</text>
  <line x1="69.50" y1="56.72" x2="69.50" y2="86.68" stroke="#16a34a" stroke-width="1.2"/><rect x="62.08" y="58.95" width="14.85" height="22.91" fill="#16a34a" rx="1"/><line x1="96.50" y1="50.07" x2="96.50" y2="84.28" stroke="#dc2626" stroke-width="1.2"/><rect x="89.08" y="58.88" width="14.85" height="15.31" fill="#dc2626" rx="1"/><line x1="123.50" y1="72.28" x2="123.50" y2="103.58" stroke="#dc2626" stroke-width="1.2"/><rect x="116.08" y="73.51" width="14.85" height="23.50" fill="#dc2626" rx="1"/><line x1="150.50" y1="86.45" x2="150.50" y2="125.88" stroke="#dc2626" stroke-width="1.2"/><rect x="143.07" y="97.21" width="14.85" height="23.81" fill="#dc2626" rx="1"/><line x1="177.50" y1="105.54" x2="177.50" y2="121.92" stroke="#16a34a" stroke-width="1.2"/><rect x="170.07" y="113.78" width="14.85" height="6.18" fill="#16a34a" rx="1"/><line x1="204.50" y1="90.33" x2="204.50" y2="114.63" stroke="#dc2626" stroke-width="1.2"/><rect x="197.07" y="113.73" width="14.85" height="1.50" fill="#dc2626" rx="1"/><line x1="231.50" y1="113.66" x2="231.50" y2="144.51" stroke="#dc2626" stroke-width="1.2"/><rect x="224.07" y="119.23" width="14.85" height="13.84" fill="#dc2626" rx="1"/><line x1="258.50" y1="128.00" x2="258.50" y2="145.18" stroke="#dc2626" stroke-width="1.2"/><rect x="251.07" y="133.07" width="14.85" height="10.04" fill="#dc2626" rx="1"/><line x1="285.50" y1="121.77" x2="285.50" y2="143.61" stroke="#16a34a" stroke-width="1.2"/><rect x="278.07" y="123.85" width="14.85" height="19.71" fill="#16a34a" rx="1"/><line x1="312.50" y1="118.41" x2="312.50" y2="136.32" stroke="#dc2626" stroke-width="1.2"/><rect x="305.07" y="123.91" width="14.85" height="6.29" fill="#dc2626" rx="1"/><line x1="339.50" y1="128.93" x2="339.50" y2="157.03" stroke="#dc2626" stroke-width="1.2"/><rect x="332.07" y="130.87" width="14.85" height="24.37" fill="#dc2626" rx="1"/><line x1="366.50" y1="142.67" x2="366.50" y2="192.42" stroke="#16a34a" stroke-width="1.2"/><rect x="359.07" y="154.67" width="14.85" height="1.50" fill="#16a34a" rx="1"/><line x1="393.50" y1="154.96" x2="393.50" y2="185.92" stroke="#dc2626" stroke-width="1.2"/><rect x="386.07" y="155.21" width="14.85" height="17.81" fill="#dc2626" rx="1"/><line x1="420.50" y1="172.66" x2="420.50" y2="203.22" stroke="#dc2626" stroke-width="1.2"/><rect x="413.07" y="173.08" width="14.85" height="19.21" fill="#dc2626" rx="1"/><line x1="447.50" y1="188.03" x2="447.50" y2="213.43" stroke="#dc2626" stroke-width="1.2"/><rect x="440.07" y="194.26" width="14.85" height="6.93" fill="#dc2626" rx="1"/><line x1="474.50" y1="192.37" x2="474.50" y2="206.89" stroke="#16a34a" stroke-width="1.2"/><rect x="467.07" y="192.85" width="14.85" height="8.47" fill="#16a34a" rx="1"/><line x1="501.50" y1="186.65" x2="501.50" y2="212.60" stroke="#dc2626" stroke-width="1.2"/><rect x="494.07" y="193.41" width="14.85" height="3.98" fill="#dc2626" rx="1"/><line x1="528.50" y1="183.01" x2="528.50" y2="198.12" stroke="#16a34a" stroke-width="1.2"/><rect x="521.08" y="183.46" width="14.85" height="14.09" fill="#16a34a" rx="1"/><line x1="555.50" y1="182.81" x2="555.50" y2="197.85" stroke="#dc2626" stroke-width="1.2"/><rect x="548.08" y="184.21" width="14.85" height="11.87" fill="#dc2626" rx="1"/><line x1="582.50" y1="194.17" x2="582.50" y2="211.17" stroke="#dc2626" stroke-width="1.2"/><rect x="575.08" y="196.04" width="14.85" height="8.58" fill="#dc2626" rx="1"/><line x1="609.50" y1="203.53" x2="609.50" y2="222.56" stroke="#dc2626" stroke-width="1.2"/><rect x="602.08" y="203.58" width="14.85" height="8.66" fill="#dc2626" rx="1"/><line x1="636.50" y1="208.99" x2="636.50" y2="225.93" stroke="#dc2626" stroke-width="1.2"/><rect x="629.08" y="212.27" width="14.85" height="4.26" fill="#dc2626" rx="1"/><line x1="663.50" y1="196.14" x2="663.50" y2="217.89" stroke="#16a34a" stroke-width="1.2"/><rect x="656.08" y="198.57" width="14.85" height="16.46" fill="#16a34a" rx="1"/><line x1="690.50" y1="188.46" x2="690.50" y2="199.65" stroke="#16a34a" stroke-width="1.2"/><rect x="683.08" y="191.00" width="14.85" height="7.51" fill="#16a34a" rx="1"/>
  <rect x="62.08" y="280.95" width="14.85" height="33.05" fill="#93c5fd" rx="1"/><rect x="89.08" y="279.04" width="14.85" height="34.96" fill="#93c5fd" rx="1"/><rect x="116.08" y="283.69" width="14.85" height="30.31" fill="#93c5fd" rx="1"/><rect x="143.07" y="292.79" width="14.85" height="21.21" fill="#93c5fd" rx="1"/><rect x="170.07" y="295.19" width="14.85" height="18.81" fill="#93c5fd" rx="1"/><rect x="197.07" y="300.48" width="14.85" height="13.52" fill="#93c5fd" rx="1"/><rect x="224.07" y="291.82" width="14.85" height="22.18" fill="#93c5fd" rx="1"/><rect x="251.07" y="302.45" width="14.85" height="11.55" fill="#93c5fd" rx="1"/><rect x="278.07" y="303.98" width="14.85" height="10.02" fill="#93c5fd" rx="1"/><rect x="305.07" y="300.36" width="14.85" height="13.64" fill="#93c5fd" rx="1"/><rect x="332.07" y="297.49" width="14.85" height="16.51" fill="#93c5fd" rx="1"/><rect x="359.07" y="270.18" width="14.85" height="43.82" fill="#93c5fd" rx="1"/><rect x="386.07" y="291.56" width="14.85" height="22.44" fill="#93c5fd" rx="1"/><rect x="413.07" y="289.40" width="14.85" height="24.60" fill="#93c5fd" rx="1"/><rect x="440.07" y="293.10" width="14.85" height="20.90" fill="#93c5fd" rx="1"/><rect x="467.07" y="303.74" width="14.85" height="10.26" fill="#93c5fd" rx="1"/><rect x="494.07" y="295.59" width="14.85" height="18.41" fill="#93c5fd" rx="1"/><rect x="521.08" y="300.72" width="14.85" height="13.28" fill="#93c5fd" rx="1"/><rect x="548.08" y="302.66" width="14.85" height="11.34" fill="#93c5fd" rx="1"/><rect x="575.08" y="299.37" width="14.85" height="14.63" fill="#93c5fd" rx="1"/><rect x="602.08" y="300.59" width="14.85" height="13.41" fill="#93c5fd" rx="1"/><rect x="629.08" y="298.89" width="14.85" height="15.11" fill="#93c5fd" rx="1"/><rect x="656.08" y="302.25" width="14.85" height="11.75" fill="#93c5fd" rx="1"/><rect x="683.08" y="264.00" width="14.85" height="50.00" fill="#93c5fd" rx="1"/>
  <text x="48" y="268.00" text-anchor="end" fill="#64748b" font-size="10" font-family="ui-sans-serif, system-ui, sans-serif">vol</text>
  <text x="69.50" y="364.00" text-anchor="middle" fill="#64748b" font-size="11" font-family="ui-sans-serif, system-ui, sans-serif">13:00</text><text x="177.50" y="364.00" text-anchor="middle" fill="#64748b" font-size="11" font-family="ui-sans-serif, system-ui, sans-serif">17:00</text><text x="285.50" y="364.00" text-anchor="middle" fill="#64748b" font-size="11" font-family="ui-sans-serif, system-ui, sans-serif">21:00</text><text x="393.50" y="364.00" text-anchor="middle" fill="#64748b" font-size="11" font-family="ui-sans-serif, system-ui, sans-serif">01:00</text><text x="501.50" y="364.00" text-anchor="middle" fill="#64748b" font-size="11" font-family="ui-sans-serif, system-ui, sans-serif">05:00</text><text x="609.50" y="364.00" text-anchor="middle" fill="#64748b" font-size="11" font-family="ui-sans-serif, system-ui, sans-serif">09:00</text>
</svg>
